<svg xmlns="http://www.w3.org/2000/svg" width="240" height="71" fill="none"><path fill="#504333" d="M0 29.47h8.677l14.9 24.761L38.48 29.47h8.188v41.023h-7.605V41.597l-13 21.53h-5.5L7.606 41.597v28.896H0zM57.663 42.186h13.045v4.552h-3.892v18.817h3.892v4.548H57.663v-4.548h3.892V46.738h-3.892zM77.466 56.143c0-8.521 4.847-14.572 14.433-14.572 3.35-.04 6.677.653 9.813 2.045v4.972a24.9 24.9 0 0 0-9.417-2.197c-6.58 0-9.427 3.47-9.427 9.752 0 6.324 2.88 9.794 9.357 9.794a17.4 17.4 0 0 0 5.7-.884v-8.447h5.26v11.99a34.1 34.1 0 0 1-11.446 2.121c-8.74.002-14.273-4.858-14.273-14.574M111.396 42.186h5.26v23.369h12.853v4.548h-18.113zM135.258 42.186h13.041v4.552h-3.892v18.817h3.892v4.548h-13.041v-4.548h3.892V46.738h-3.892zM155.052 56.143c0-7.824 4.355-14.572 13.481-14.572 9.394 0 13.481 6.593 13.481 14.572 0 7.827-4.352 14.575-13.481 14.575-9.387.001-13.481-6.592-13.481-14.575m21.53 0c0-5.242-2.257-9.674-8.049-9.674s-8.049 4.432-8.049 9.674 2.26 9.677 8.049 9.677 8.049-4.431 8.049-9.677M189.787 42.186h10.031c7.091 0 11.049 2.894 11.049 8.368 0 3.968-2.191 6.593-6.05 7.827a6.9 6.9 0 0 1 2.125 2.04l6.674 9.677h-6.575l-5.885-8.672c-1.143-1.698-1.632-2.003-4.018-2.003h-2.092V70.1h-5.259zm5.26 4.552v8.175h4.216c4.411 0 6.076-1.581 6.076-4.28 0-2.586-1.926-3.89-6.076-3.89zM219.924 42.186h19.947v4.552h-14.687v6.784h12.592v4.553h-12.592v7.48h14.817v4.548h-20.077z"/><path fill="#333" d="M42.029 13.997h1.184V.797h-1.184zm13.68-9.994a3.1 3.1 0 0 0-1.82.439c-.563.335-1.04.84-1.38 1.465V4.078H51.42v9.92h1.136V8.792a3.8 3.8 0 0 1 .135-1.401c.132-.45.346-.86.627-1.201a2.8 2.8 0 0 1 .998-.776 2.4 2.4 0 0 1 1.184-.205c1.6 0 2.528 1.075 2.528 3.168v5.62h1.136V8.245c0-2.852-1.408-4.243-3.456-4.243m15.376 8.429c-.351.34-.794.52-1.248.505a1.16 1.16 0 0 1-.598-.096 1.35 1.35 0 0 1-.503-.394 1.7 1.7 0 0 1-.306-.612 1.9 1.9 0 0 1-.05-.709V5.21h2.56V4.078h-2.56V1.91h-1.135v2.168h-1.5V5.21h1.5v5.996c-.035.39.005.786.117 1.156.111.37.292.706.528.982.237.277.523.488.838.617.314.13.65.174.98.13.644.024 1.274-.223 1.777-.697zm14.3-3.394a5.5 5.5 0 0 0-.233-1.923 4.9 4.9 0 0 0-.869-1.651 4.1 4.1 0 0 0-1.359-1.1 3.5 3.5 0 0 0-1.62-.361 3.5 3.5 0 0 0-1.621.366 4.1 4.1 0 0 0-1.363 1.097 5 5 0 0 0-.88 1.648 5.6 5.6 0 0 0-.247 1.924 5.7 5.7 0 0 0 .303 1.995 5 5 0 0 0 .96 1.681c.416.476.912.844 1.455 1.08a3.6 3.6 0 0 0 1.702.297 3.6 3.6 0 0 0 1.78-.384 4.2 4.2 0 0 0 1.472-1.242l-.64-.867a3.4 3.4 0 0 1-1.167.984c-.445.224-.926.33-1.41.312a2.7 2.7 0 0 1-1.21-.19 3.05 3.05 0 0 1-1.055-.723 3.7 3.7 0 0 1-.738-1.146 4.2 4.2 0 0 1-.308-1.392h7.04c-.004-.141.012-.292.012-.405zm-4.08-3.89c.765-.02 1.508.313 2.067.93s.891 1.468.925 2.37h-5.968c.034-.898.364-1.745.921-2.36s1.296-.949 2.059-.93zm12.288.868V4.078h-1.088v9.92h1.136V8.942c0-2.338 1.072-3.653 2.832-3.653.08 0 .176.019.272.019V4.012a2.78 2.78 0 0 0-1.838.432c-.561.358-1.018.907-1.31 1.577zm10.576-4.111a.7.7 0 0 0 .321-.07.8.8 0 0 0 .272-.211q.117-.14.18-.321a1.082 1.082 0 0 0-.012-.74 1 1 0 0 0-.183-.304.8.8 0 0 0-.267-.197.7.7 0 0 0-.311-.062.76.76 0 0 0-.581.27 1.05 1.05 0 0 0-.187 1.047q.065.179.182.315.118.136.271.209.154.07.319.069zm-.572 12.092h1.136V4.078h-1.136zm12.544.095a3.6 3.6 0 0 0 1.66-.341 4.16 4.16 0 0 0 1.407-1.092c.401-.475.714-1.04.922-1.663.207-.623.303-1.29.283-1.958a5.7 5.7 0 0 0-.284-1.955 5 5 0 0 0-.923-1.659 4.1 4.1 0 0 0-1.407-1.087 3.6 3.6 0 0 0-1.658-.334 3.6 3.6 0 0 0-1.662.333 4.2 4.2 0 0 0-1.411 1.086 5 5 0 0 0-.926 1.66 5.6 5.6 0 0 0-.289 1.956c-.019.67.079 1.336.288 1.96s.524 1.189.926 1.663c.402.473.882.845 1.411 1.09a3.6 3.6 0 0 0 1.663.34m0-1.189a2.7 2.7 0 0 1-1.244-.277 3.1 3.1 0 0 1-1.045-.844 3.8 3.8 0 0 1-.668-1.267 4.2 4.2 0 0 1-.179-1.477 4.2 4.2 0 0 1 .179-1.477 3.8 3.8 0 0 1 .668-1.268c.295-.363.651-.65 1.045-.844a2.7 2.7 0 0 1 1.244-.277c.426-.01.849.084 1.242.277.393.194.748.481 1.042.845.294.363.52.795.665 1.268.144.472.204.975.175 1.476a4.2 4.2 0 0 1-.175 1.476 3.8 3.8 0 0 1-.665 1.268 3.1 3.1 0 0 1-1.042.844 2.66 2.66 0 0 1-1.242.277m12.48-6.882V4.078h-1.088v9.92h1.132V8.942c0-2.338 1.072-3.653 2.832-3.653.08 0 .176.019.272.019V4.012a2.78 2.78 0 0 0-1.838.432c-.561.358-1.018.907-1.31 1.577m21.376 8.07c2.192 0 3.472-1.112 3.472-2.828 0-3.81-5.456-1.792-5.456-4.47 0-.942.672-1.64 2.192-1.64.88-.022 1.746.274 2.48.849l.5-1.075c-.903-.625-1.934-.944-2.98-.924-2.144 0-3.328 1.207-3.328 2.828 0 3.923 5.456 1.886 5.456 4.47 0 .98-.656 1.621-2.256 1.621-1.072.01-2.12-.379-2.992-1.112l-.512 1.06c.998.836 2.2 1.265 3.424 1.222m14.656-10.088a3.1 3.1 0 0 0-1.779.415 3.8 3.8 0 0 0-1.373 1.395V.005h-1.136v13.992h1.136V8.793a3.8 3.8 0 0 1 .135-1.401c.132-.45.346-.86.627-1.201.28-.342.621-.607.998-.776s.781-.24 1.184-.205c1.6 0 2.528 1.075 2.528 3.168v5.62h1.136V8.245c0-2.852-1.408-4.243-3.456-4.243m14.812 10.089a3.6 3.6 0 0 0 1.66-.341 4.16 4.16 0 0 0 1.407-1.092c.401-.475.714-1.04.922-1.663.207-.623.303-1.29.283-1.958a5.7 5.7 0 0 0-.284-1.955 5 5 0 0 0-.923-1.659 4.1 4.1 0 0 0-1.407-1.087 3.6 3.6 0 0 0-1.658-.334 3.6 3.6 0 0 0-1.662.333 4.2 4.2 0 0 0-1.411 1.086 5 5 0 0 0-.926 1.66 5.7 5.7 0 0 0-.289 1.956c-.019.67.079 1.336.288 1.96s.524 1.189.926 1.663c.402.473.882.845 1.411 1.09a3.6 3.6 0 0 0 1.663.34m0-1.189a2.7 2.7 0 0 1-1.244-.277 3.1 3.1 0 0 1-1.045-.844 3.8 3.8 0 0 1-.668-1.267 4.2 4.2 0 0 1-.179-1.477 4.2 4.2 0 0 1 .179-1.477 3.8 3.8 0 0 1 .668-1.268c.295-.363.651-.65 1.045-.844a2.7 2.7 0 0 1 1.244-.277c.425-.01.848.085 1.241.279.393.193.747.48 1.041.845.293.363.519.795.663 1.267s.204.974.175 1.475c.029.5-.03 1.003-.175 1.475-.144.472-.37.903-.663 1.267a3.1 3.1 0 0 1-1.041.845 2.7 2.7 0 0 1-1.241.278m15.732-8.9a3.2 3.2 0 0 0-1.857.503c-.57.358-1.05.887-1.391 1.533V4.08h-1.084V17.65h1.136v-5.52a3.97 3.97 0 0 0 1.38 1.473 3.23 3.23 0 0 0 1.816.488 3.54 3.54 0 0 0 1.646-.347 4.1 4.1 0 0 0 1.39-1.097c.394-.475.7-1.041.899-1.662a5.6 5.6 0 0 0 .257-1.948 5.6 5.6 0 0 0-.261-1.943 5 5 0 0 0-.9-1.657 4.1 4.1 0 0 0-1.388-1.092 3.5 3.5 0 0 0-1.643-.343m-.08 8.9a2.7 2.7 0 0 1-1.245-.277 3.1 3.1 0 0 1-1.044-.844 3.8 3.8 0 0 1-.668-1.267 4.2 4.2 0 0 1-.179-1.477 4.2 4.2 0 0 1 .182-1.476c.146-.471.374-.902.668-1.265s.65-.65 1.043-.844.816-.29 1.243-.281c.425-.007.848.09 1.24.284.393.194.747.482 1.041.844.295.363.522.793.669 1.264s.21.973.186 1.474a4.2 4.2 0 0 1-.183 1.475 3.8 3.8 0 0 1-.668 1.266c-.295.363-.65.65-1.043.844s-.816.289-1.242.28"/></svg>